{"title":"And Baby Will Fall 2011 HDTVRip XviD Feel-Free","uid":7008353,"size":733700437,"categoryP":"video","categoryS":"movies","magnet":"?xt=urn:btih:133829da149c03d0332001a8e8f29a34e5950c03&amp;dn=And+Baby+Will+Fall+2011+HDTVRip+XviD+Feel-Free&amp;tr=udp%3A%2F%2Ftracker.openbittorrent.com%3A80&amp;tr=udp%3A%2F%2Fopen.demonii.com%3A1337&amp;tr=udp%3A%2F%2Ftracker.coppersurfer.tk%3A6969&amp;tr=udp%3A%2F%2Fexodus.desync.com%3A6969","seeders":0,"leechers":1,"uploader":null,"files":7,"time":1328347515,"description":"Genre: Drama | Thriller\nLanguage:English\nIMDb:http://www.imdb.com/title/tt1815588/\nSource:720p.HDTV.x264-CHOJRAK Thanks!\nEncoder:Tony\n\n\nFormat : AVI\nFormat/Info : Audio Video Interleave\nFile size : 698 MiB\nDuration : 1h 24mn\nOverall bit rate : 1 154 Kbps\n\nVideo\nID : 0\nFormat : MPEG-4 Visual\nFormat profile : Advanced Simple@L5\nFormat settings, BVOP : 1\nFormat settings, QPel : No\nFormat settings, GMC : No warppoints\nFormat settings, Matrix : Default (H.263)\nCodec ID : XVID\nCodec ID/Hint : XviD\nDuration : 1h 24mn\nBit rate : 952 Kbps\nWidth : 640 pixels\nHeight : 360 pixels\nDisplay aspect ratio : 16:9\nFrame rate : 25.000 fps\nColor space : YUV\nChroma subsampling : 4:2:0\nBit depth : 8 bits\nScan type : Progressive\nCompression mode : Lossy\nBits/(Pixel*Frame) : 0.165\nStream size : 576 MiB (83%)\nWriting library : XviD 1.2.1 (UTC 2008-12-04)\n\nAudio\nID : 1\nFormat : AC-3\nFormat/Info : Audio Coding 3\nMode extension : CM (complete main)\nCodec ID : 2000\nDuration : 1h 24mn\nBit rate mode : Constant\nBit rate : 192 Kbps\nChannel(s) : 2 channels\nChannel positions : Front: L R\nSampling rate : 48.0 KHz\nBit depth : 16 bits\nCompression mode : Lossy\nStream size : 116 MiB (17%)\nAlignment : Aligned on interleaves\nInterleave, duration : 40 ms (1.00 video frame)\nInterleave, preload duration : 512 ms\n\n\nPlot:\nExpectant parents become prime suspects in the disappearance of a pregnant woman who was last seen at their garage sale","torrent":{"xt":"urn:btih:133829da149c03d0332001a8e8f29a34e5950c03","amp;dn":"And+Baby+Will+Fall+2011+HDTVRip+XviD+Feel-Free","amp;tr":["udp%3A%2F%2Ftracker.openbittorrent.com%3A80","udp%3A%2F%2Fopen.demonii.com%3A1337","udp%3A%2F%2Ftracker.coppersurfer.tk%3A6969","udp%3A%2F%2Fexodus.desync.com%3A6969"],"infoHash":"133829da149c03d0332001a8e8f29a34e5950c03","infoHashBuffer":{"type":"Buffer","data":[19,56,41,218,20,156,3,208,51,32,1,168,232,242,154,52,229,149,12,3]},"announce":[],"urlList":[]}}